<svg width="67" height="67" viewBox="0 0 67 67" fill="none" xmlns="http://www.w3.org/2000/svg">
<circle cx="27.0772" cy="17.5827" r="8.57271" transform="rotate(-22 27.0772 17.5827)" fill="#E6E6E6"/>
<circle cx="17.603" cy="39.9024" r="8.57271" transform="rotate(-22 17.603 39.9024)" fill="#E6E6E6"/>
<circle cx="49.3969" cy="27.0568" r="8.57271" transform="rotate(-22 49.3969 27.0568)" fill="#E6E6E6"/>
<circle cx="39.9227" cy="49.3765" r="8.57271" transform="rotate(-22 39.9227 49.3765)" fill="#E6E6E6"/>
<circle cx="30.0818" cy="16.6783" r="8.5727" transform="rotate(-11.5 30.0818 16.6783)" fill="#CCCCCC"/>
<circle cx="16.6988" cy="36.8977" r="8.5727" transform="rotate(-11.5 16.6988 36.8977)" fill="#CCCCCC"/>
<circle cx="50.3013" cy="30.0612" r="8.5727" transform="rotate(-11.5 50.3013 30.0612)" fill="#CCCCCC"/>
<circle cx="36.9183" cy="50.2807" r="8.5727" transform="rotate(-11.5 36.9183 50.2807)" fill="#CCCCCC"/>
<circle cx="33.5" cy="16.3341" r="8.5727" fill="black"/>
<circle cx="16.3546" cy="33.4794" r="8.5727" fill="black"/>
<circle cx="50.6454" cy="33.4794" r="8.5727" fill="black"/>
<circle cx="33.5" cy="50.6249" r="8.5727" fill="black"/>
</svg>
