<svg width="118" height="42" viewBox="0 0 118 42" fill="none" xmlns="http://www.w3.org/2000/svg">
<circle cx="16.9713" cy="11.0287" r="5.37721" transform="rotate(-22 16.9713 11.0287)" fill="#E6E6E6"/>
<circle cx="11.0287" cy="25.0287" r="5.37721" transform="rotate(-22 11.0287 25.0287)" fill="#E6E6E6"/>
<circle cx="30.9713" cy="16.9713" r="5.37721" transform="rotate(-22 30.9713 16.9713)" fill="#E6E6E6"/>
<circle cx="25.0287" cy="30.9713" r="5.37721" transform="rotate(-22 25.0287 30.9713)" fill="#E6E6E6"/>
<circle cx="18.8559" cy="10.4614" r="5.37721" transform="rotate(-11.5 18.8559 10.4614)" fill="#CCCCCC"/>
<circle cx="10.4615" cy="23.144" r="5.37721" transform="rotate(-11.5 10.4615 23.144)" fill="#CCCCCC"/>
<circle cx="31.5385" cy="18.8559" r="5.37721" transform="rotate(-11.5 31.5385 18.8559)" fill="#CCCCCC"/>
<circle cx="23.1441" cy="31.5385" r="5.37721" transform="rotate(-11.5 23.1441 31.5385)" fill="#CCCCCC"/>
<circle cx="21" cy="10.2455" r="5.37721" fill="black"/>
<circle cx="10.2456" cy="20.9999" r="5.37721" fill="black"/>
<circle cx="31.7544" cy="20.9999" r="5.37721" fill="black"/>
<circle cx="21" cy="31.7543" r="5.37721" fill="black"/>
<path d="M58.6 30.36C56.216 30.36 54.184 29.552 52.504 27.936C50.84 26.32 50.008 24.176 50.008 21.504C50.008 18.848 50.856 16.704 52.552 15.072C54.248 13.44 56.256 12.624 58.576 12.624C60.624 12.624 62.304 13.144 63.616 14.184C64.944 15.224 65.816 16.544 66.232 18.144L63.52 19.056C63.248 17.952 62.696 17.056 61.864 16.368C61.032 15.68 59.936 15.336 58.576 15.336C57.056 15.336 55.736 15.88 54.616 16.968C53.512 18.04 52.96 19.552 52.96 21.504C52.96 23.408 53.512 24.904 54.616 25.992C55.72 27.064 57.048 27.6 58.6 27.6C59.928 27.6 61.024 27.24 61.888 26.52C62.752 25.8 63.344 24.912 63.664 23.856L66.304 24.72C65.888 26.304 65.008 27.64 63.664 28.728C62.336 29.816 60.648 30.36 58.6 30.36ZM76.1268 28.704C75.8548 29.216 75.4068 29.616 74.7828 29.904C74.1748 30.192 73.5188 30.336 72.8148 30.336C71.4548 30.336 70.3748 29.896 69.5748 29.016C68.7908 28.136 68.3988 27.024 68.3988 25.68V18.312H71.1828V25.176C71.1828 25.96 71.3748 26.6 71.7588 27.096C72.1428 27.592 72.7348 27.84 73.5348 27.84C74.3188 27.84 74.9188 27.6 75.3348 27.12C75.7668 26.64 75.9828 26.008 75.9828 25.224V18.312H78.7668V27.864C78.7668 28.568 78.8068 29.28 78.8868 30H76.2228C76.1588 29.648 76.1268 29.216 76.1268 28.704ZM89.908 28.704C89.636 29.216 89.188 29.616 88.564 29.904C87.956 30.192 87.3 30.336 86.596 30.336C85.236 30.336 84.156 29.896 83.356 29.016C82.572 28.136 82.18 27.024 82.18 25.68V18.312H84.964V25.176C84.964 25.96 85.156 26.6 85.54 27.096C85.924 27.592 86.516 27.84 87.316 27.84C88.1 27.84 88.7 27.6 89.116 27.12C89.548 26.64 89.764 26.008 89.764 25.224V18.312H92.548V27.864C92.548 28.568 92.588 29.28 92.668 30H90.004C89.94 29.648 89.908 29.216 89.908 28.704ZM102.992 18.24V21.072C102.672 21.024 102.368 21 102.08 21C99.9836 21 98.9356 22.144 98.9356 24.432V30H96.1516V18.312H98.8636V20.184C99.1356 19.56 99.5756 19.072 100.184 18.72C100.792 18.352 101.48 18.168 102.248 18.168C102.504 18.168 102.752 18.192 102.992 18.24ZM108.006 26.88C108.646 27.536 109.422 27.864 110.334 27.864C111.246 27.864 112.014 27.536 112.638 26.88C113.278 26.224 113.598 25.312 113.598 24.144C113.598 22.992 113.278 22.096 112.638 21.456C112.014 20.8 111.246 20.472 110.334 20.472C109.422 20.472 108.646 20.8 108.006 21.456C107.382 22.096 107.07 22.992 107.07 24.144C107.07 25.296 107.382 26.208 108.006 26.88ZM110.334 17.952C112.094 17.952 113.542 18.536 114.678 19.704C115.83 20.872 116.406 22.352 116.406 24.144C116.406 25.936 115.83 27.424 114.678 28.608C113.542 29.776 112.094 30.36 110.334 30.36C108.59 30.36 107.142 29.776 105.99 28.608C104.854 27.424 104.286 25.936 104.286 24.144C104.286 22.352 104.854 20.872 105.99 19.704C107.142 18.536 108.59 17.952 110.334 17.952Z" fill="#0F172A"/>
</svg>
